<svg id="visual" viewBox="0 0 900 100" width="900" height="100" xmlns="http://www.w3.org/2000/svg" xmlns:xlink="http://www.w3.org/1999/xlink" version="1.1"><rect x="0" y="0" width="900" height="100" fill="#370080"></rect><path d="M0 59L25 62.2C50 65.3 100 71.7 150 75.8C200 80 250 82 300 80C350 78 400 72 450 67.7C500 63.3 550 60.7 600 63.3C650 66 700 74 750 73.3C800 72.7 850 63.3 875 58.7L900 54L900 101L875 101C850 101 800 101 750 101C700 101 650 101 600 101C550 101 500 101 450 101C400 101 350 101 300 101C250 101 200 101 150 101C100 101 50 101 25 101L0 101Z" fill="#000" stroke-linecap="round" stroke-linejoin="miter"></path></svg>