<svg id="visual" viewBox="0 0 900 100" width="900" height="100" xmlns="http://www.w3.org/2000/svg" xmlns:xlink="http://www.w3.org/1999/xlink" version="1.1"><rect x="0" y="0" width="900" height="100" fill="#370080"></rect><path d="M0 24L21.5 32C43 40 86 56 128.8 62.8C171.7 69.7 214.3 67.3 257.2 63.5C300 59.7 343 54.3 385.8 54.7C428.7 55 471.3 61 514.2 58C557 55 600 43 642.8 43.7C685.7 44.3 728.3 57.7 771.2 61.2C814 64.7 857 58.3 878.5 55.2L900 52L900 101L878.5 101C857 101 814 101 771.2 101C728.3 101 685.7 101 642.8 101C600 101 557 101 514.2 101C471.3 101 428.7 101 385.8 101C343 101 300 101 257.2 101C214.3 101 171.7 101 128.8 101C86 101 43 101 21.5 101L0 101Z" fill="#000" stroke-linecap="round" stroke-linejoin="miter"></path></svg>